{
	"asset": {
		"generator": "Blocks",
		"version": "105",
		"copyright": "Unknown"
	},
	"buffers": {
		"model": {
			"byteLength": 2637348,
			"type": "arraybuffer",
			"uri": "model.bin"
		}
	},
	"accessors": {
		"accessor_position_m0-PolyPaper19_-1233036": {
			"bufferView": "vec3BufferView",
			"byteOffset": 0,
			"byteStride": 12,
			"componentType": 5126,
			"count": 2652,
			"max": [ 0.6172013, 2.381748, -0.5567141 ],
			"min": [ -0.5106891, 1.575434, -0.9179685 ],
			"type": "VEC3"
		 },
		"accessor_normal_m0-PolyPaper19_-1233036": {
			"bufferView": "vec3BufferView",
			"byteOffset": 31824,
			"byteStride": 12,
			"componentType": 5126,
			"count": 2652,
			"max": [ 0.9990602, 0.9959895, 0.9971166 ],
			"min": [ -0.9977745, -0.9996073, -0.9978377 ],
			"type": "VEC3"
		 },
		"accessor_color_m0-PolyPaper19_-1233036": {
			"bufferView": "vec4BufferView",
			"byteOffset": 0,
			"byteStride": 16,
			"componentType": 5126,
			"count": 2652,
			"max": [ 1, 0.8, 0.5333334, 1 ],
			"min": [ 0.4745098, 0.3333333, 0.2666667, 1 ],
			"type": "VEC4"
		 },
		"accessor_indices_0_m0-PolyPaper19_-1233036": {
			"bufferView": "ushortBufferView",
			"byteOffset": 0,
			"byteStride": 0,
			"componentType": 5123,
			"count": 3114,
			"max": [ 2651 ],
			"min": [ 0 ],
			"type": "SCALAR"
		 },
		"accessor_position_m1-PolyPaper18_-1229702": {
			"bufferView": "vec3BufferView",
			"byteOffset": 63648,
			"byteStride": 12,
			"componentType": 5126,
			"count": 9982,
			"max": [ 0.3032354, 2.087027, -0.5246168 ],
			"min": [ -0.7159301, 1.577578, -1.289088 ],
			"type": "VEC3"
		 },
		"accessor_normal_m1-PolyPaper18_-1229702": {
			"bufferView": "vec3BufferView",
			"byteOffset": 183432,
			"byteStride": 12,
			"componentType": 5126,
			"count": 9982,
			"max": [ 0.9993617, 0.999963, 0.9996422 ],
			"min": [ -0.9985908, -0.9998011, -0.9973778 ],
			"type": "VEC3"
		 },
		"accessor_color_m1-PolyPaper18_-1229702": {
			"bufferView": "vec4BufferView",
			"byteOffset": 42432,
			"byteStride": 16,
			"componentType": 5126,
			"count": 9982,
			"max": [ 1, 0.8, 0.5333334, 1 ],
			"min": [ 0.4745098, 0.3333333, 0.2666667, 1 ],
			"type": "VEC4"
		 },
		"accessor_indices_0_m1-PolyPaper18_-1229702": {
			"bufferView": "ushortBufferView",
			"byteOffset": 6228,
			"byteStride": 0,
			"componentType": 5123,
			"count": 13584,
			"max": [ 9981 ],
			"min": [ 0 ],
			"type": "SCALAR"
		 },
		"accessor_position_m2-PolyPaper18_-1222490": {
			"bufferView": "vec3BufferView",
			"byteOffset": 303216,
			"byteStride": 12,
			"componentType": 5126,
			"count": 9874,
			"max": [ 0.6324285, 2.382498, -0.5795492 ],
			"min": [ -0.07288391, 1.79511, -0.9076369 ],
			"type": "VEC3"
		 },
		"accessor_normal_m2-PolyPaper18_-1222490": {
			"bufferView": "vec3BufferView",
			"byteOffset": 421704,
			"byteStride": 12,
			"componentType": 5126,
			"count": 9874,
			"max": [ 0.9998843, 0.9999874, 0.9991775 ],
			"min": [ -0.9995977, -0.9999948, -0.9990333 ],
			"type": "VEC3"
		 },
		"accessor_color_m2-PolyPaper18_-1222490": {
			"bufferView": "vec4BufferView",
			"byteOffset": 202144,
			"byteStride": 16,
			"componentType": 5126,
			"count": 9874,
			"max": [ 1, 0.8, 0.5333334, 1 ],
			"min": [ 0.4745098, 0.3333333, 0.2666667, 1 ],
			"type": "VEC4"
		 },
		"accessor_indices_0_m2-PolyPaper18_-1222490": {
			"bufferView": "ushortBufferView",
			"byteOffset": 33396,
			"byteStride": 0,
			"componentType": 5123,
			"count": 11676,
			"max": [ 9873 ],
			"min": [ 0 ],
			"type": "SCALAR"
		 },
		"accessor_position_m3-PolyPaper20_-1221148": {
			"bufferView": "vec3BufferView",
			"byteOffset": 540192,
			"byteStride": 12,
			"componentType": 5126,
			"count": 9942,
			"max": [ 0.6282633, 2.382801, -0.5086192 ],
			"min": [ -0.7216693, 1.578695, -1.199596 ],
			"type": "VEC3"
		 },
		"accessor_normal_m3-PolyPaper20_-1221148": {
			"bufferView": "vec3BufferView",
			"byteOffset": 659496,
			"byteStride": 12,
			"componentType": 5126,
			"count": 9942,
			"max": [ 0.996473, 0.9994072, 0.9998496 ],
			"min": [ -0.9996625, -0.9994074, -0.9989066 ],
			"type": "VEC3"
		 },
		"accessor_color_m3-PolyPaper20_-1221148": {
			"bufferView": "vec4BufferView",
			"byteOffset": 360128,
			"byteStride": 16,
			"componentType": 5126,
			"count": 9942,
			"max": [ 1, 0.8470588, 0.8627451, 1 ],
			"min": [ 0.1019608, 0.1019608, 0.1019608, 1 ],
			"type": "VEC4"
		 },
		"accessor_indices_0_m3-PolyPaper20_-1221148": {
			"bufferView": "ushortBufferView",
			"byteOffset": 56748,
			"byteStride": 0,
			"componentType": 5123,
			"count": 12618,
			"max": [ 9941 ],
			"min": [ 0 ],
			"type": "SCALAR"
		 },
		"accessor_position_m4-PolyPaper20_-1233016": {
			"bufferView": "vec3BufferView",
			"byteOffset": 778800,
			"byteStride": 12,
			"componentType": 5126,
			"count": 9964,
			"max": [ 0.6273963, 2.383089, -0.5223458 ],
			"min": [ -0.7117219, 1.580963, -1.157114 ],
			"type": "VEC3"
		 },
		"accessor_normal_m4-PolyPaper20_-1233016": {
			"bufferView": "vec3BufferView",
			"byteOffset": 898368,
			"byteStride": 12,
			"componentType": 5126,
			"count": 9964,
			"max": [ 0.9999769, 0.9997658, 0.9992849 ],
			"min": [ -0.9999768, -0.9999968, -0.998497 ],
			"type": "VEC3"
		 },
		"accessor_color_m4-PolyPaper20_-1233016": {
			"bufferView": "vec4BufferView",
			"byteOffset": 519200,
			"byteStride": 16,
			"componentType": 5126,
			"count": 9964,
			"max": [ 1, 0.8470588, 0.8627451, 1 ],
			"min": [ 0.1019608, 0.1019608, 0.1019608, 1 ],
			"type": "VEC4"
		 },
		"accessor_indices_0_m4-PolyPaper20_-1233016": {
			"bufferView": "ushortBufferView",
			"byteOffset": 81984,
			"byteStride": 0,
			"componentType": 5123,
			"count": 12492,
			"max": [ 9963 ],
			"min": [ 0 ],
			"type": "SCALAR"
		 },
		"accessor_position_m5-PolyPaper20_-1232708": {
			"bufferView": "vec3BufferView",
			"byteOffset": 1017936,
			"byteStride": 12,
			"componentType": 5126,
			"count": 9794,
			"max": [ 0.6314337, 2.396097, -0.4922037 ],
			"min": [ -0.6993732, 1.567679, -1.106408 ],
			"type": "VEC3"
		 },
		"accessor_normal_m5-PolyPaper20_-1232708": {
			"bufferView": "vec3BufferView",
			"byteOffset": 1135464,
			"byteStride": 12,
			"componentType": 5126,
			"count": 9794,
			"max": [ 0.9989654, 0.999913, 0.9999779 ],
			"min": [ -0.9989654, -0.9998486, -0.9999779 ],
			"type": "VEC3"
		 },
		"accessor_color_m5-PolyPaper20_-1232708": {
			"bufferView": "vec4BufferView",
			"byteOffset": 678624,
			"byteStride": 16,
			"componentType": 5126,
			"count": 9794,
			"max": [ 1, 0.8, 0.5333334, 1 ],
			"min": [ 0.1019608, 0.1019608, 0.1019608, 1 ],
			"type": "VEC4"
		 },
		"accessor_indices_0_m5-PolyPaper20_-1232708": {
			"bufferView": "ushortBufferView",
			"byteOffset": 106968,
			"byteStride": 0,
			"componentType": 5123,
			"count": 12612,
			"max": [ 9793 ],
			"min": [ 0 ],
			"type": "SCALAR"
		 },
		"accessor_position_m6-PolyPaper19_-1231844": {
			"bufferView": "vec3BufferView",
			"byteOffset": 1252992,
			"byteStride": 12,
			"componentType": 5126,
			"count": 9790,
			"max": [ 0.3594186, 2.103211, -0.4689476 ],
			"min": [ -0.7187086, 1.566112, -1.217584 ],
			"type": "VEC3"
		 },
		"accessor_normal_m6-PolyPaper19_-1231844": {
			"bufferView": "vec3BufferView",
			"byteOffset": 1370472,
			"byteStride": 12,
			"componentType": 5126,
			"count": 9790,
			"max": [ 0.9981924, 0.9998904, 0.9992998 ],
			"min": [ -0.998389, -0.9999838, -0.9994572 ],
			"type": "VEC3"
		 },
		"accessor_color_m6-PolyPaper19_-1231844": {
			"bufferView": "vec4BufferView",
			"byteOffset": 835328,
			"byteStride": 16,
			"componentType": 5126,
			"count": 9790,
			"max": [ 1, 0.8, 0.5333334, 1 ],
			"min": [ 0.4745098, 0.3333333, 0.2666667, 1 ],
			"type": "VEC4"
		 },
		"accessor_indices_0_m6-PolyPaper19_-1231844": {
			"bufferView": "ushortBufferView",
			"byteOffset": 132192,
			"byteStride": 0,
			"componentType": 5123,
			"count": 12618,
			"max": [ 9789 ],
			"min": [ 0 ],
			"type": "SCALAR"
		 }
	},
	"bufferViews": {
		"ushortBufferView": {
			"buffer": "model",
			"byteLength": 157428,
			"byteOffset": 0,
			"target": 34963
		},
		"vec3BufferView": {
			"buffer": "model",
			"byteLength": 1487952,
			"byteOffset": 157428,
			"target": 34962
		},
		"vec4BufferView": {
			"buffer": "model",
			"byteLength": 991968,
			"byteOffset": 1645380,
			"target": 34962
		}
	},
	"meshes": {
		"mesh_m0-PolyPaper19_-1233036": {
			"name": "mesh_m0-PolyPaper19_-1233036",
			"primitives": [
				{
					"attributes": {
						"POSITION": "accessor_position_m0-PolyPaper19_-1233036",
						"NORMAL": "accessor_normal_m0-PolyPaper19_-1233036",
						"COLOR": "accessor_color_m0-PolyPaper19_-1233036"
					},
					"indices": "accessor_indices_0_m0-PolyPaper19_-1233036",
					"material": "material_mat19",
					"mode": 4
				}
			]
		},
		"mesh_m1-PolyPaper18_-1229702": {
			"name": "mesh_m1-PolyPaper18_-1229702",
			"primitives": [
				{
					"attributes": {
						"POSITION": "accessor_position_m1-PolyPaper18_-1229702",
						"NORMAL": "accessor_normal_m1-PolyPaper18_-1229702",
						"COLOR": "accessor_color_m1-PolyPaper18_-1229702"
					},
					"indices": "accessor_indices_0_m1-PolyPaper18_-1229702",
					"material": "material_mat18",
					"mode": 4
				}
			]
		},
		"mesh_m2-PolyPaper18_-1222490": {
			"name": "mesh_m2-PolyPaper18_-1222490",
			"primitives": [
				{
					"attributes": {
						"POSITION": "accessor_position_m2-PolyPaper18_-1222490",
						"NORMAL": "accessor_normal_m2-PolyPaper18_-1222490",
						"COLOR": "accessor_color_m2-PolyPaper18_-1222490"
					},
					"indices": "accessor_indices_0_m2-PolyPaper18_-1222490",
					"material": "material_mat18",
					"mode": 4
				}
			]
		},
		"mesh_m3-PolyPaper20_-1221148": {
			"name": "mesh_m3-PolyPaper20_-1221148",
			"primitives": [
				{
					"attributes": {
						"POSITION": "accessor_position_m3-PolyPaper20_-1221148",
						"NORMAL": "accessor_normal_m3-PolyPaper20_-1221148",
						"COLOR": "accessor_color_m3-PolyPaper20_-1221148"
					},
					"indices": "accessor_indices_0_m3-PolyPaper20_-1221148",
					"material": "material_mat20",
					"mode": 4
				}
			]
		},
		"mesh_m4-PolyPaper20_-1233016": {
			"name": "mesh_m4-PolyPaper20_-1233016",
			"primitives": [
				{
					"attributes": {
						"POSITION": "accessor_position_m4-PolyPaper20_-1233016",
						"NORMAL": "accessor_normal_m4-PolyPaper20_-1233016",
						"COLOR": "accessor_color_m4-PolyPaper20_-1233016"
					},
					"indices": "accessor_indices_0_m4-PolyPaper20_-1233016",
					"material": "material_mat20",
					"mode": 4
				}
			]
		},
		"mesh_m5-PolyPaper20_-1232708": {
			"name": "mesh_m5-PolyPaper20_-1232708",
			"primitives": [
				{
					"attributes": {
						"POSITION": "accessor_position_m5-PolyPaper20_-1232708",
						"NORMAL": "accessor_normal_m5-PolyPaper20_-1232708",
						"COLOR": "accessor_color_m5-PolyPaper20_-1232708"
					},
					"indices": "accessor_indices_0_m5-PolyPaper20_-1232708",
					"material": "material_mat20",
					"mode": 4
				}
			]
		},
		"mesh_m6-PolyPaper19_-1231844": {
			"name": "mesh_m6-PolyPaper19_-1231844",
			"primitives": [
				{
					"attributes": {
						"POSITION": "accessor_position_m6-PolyPaper19_-1231844",
						"NORMAL": "accessor_normal_m6-PolyPaper19_-1231844",
						"COLOR": "accessor_color_m6-PolyPaper19_-1231844"
					},
					"indices": "accessor_indices_0_m6-PolyPaper19_-1231844",
					"material": "material_mat19",
					"mode": 4
				}
			]
		}
	},
	"shaders": {
		"vertex_mat19": {
			"type": 35633,
			"uri": "https://vr.google.com/shaders/w/vs.glsl"
		},
		"fragment_mat19": {
			"type": 35632,
			"uri": "https://vr.google.com/shaders/w/fs.glsl"
		},
		"vertex_mat18": {
			"type": 35633,
			"uri": "https://vr.google.com/shaders/w/vs.glsl"
		},
		"fragment_mat18": {
			"type": 35632,
			"uri": "https://vr.google.com/shaders/w/fs.glsl"
		},
		"vertex_mat20": {
			"type": 35633,
			"uri": "https://vr.google.com/shaders/w/vs.glsl"
		},
		"fragment_mat20": {
			"type": 35632,
			"uri": "https://vr.google.com/shaders/w/fs.glsl"
		}
	},
	"programs": {
		"program_mat19": {
			"attributes": [
				"a_position",
				"a_normal",
				"a_color"				
			],
			"vertexShader": "vertex_mat19",
			"fragmentShader": "fragment_mat19"
		},
		"program_mat18": {
			"attributes": [
				"a_position",
				"a_normal",
				"a_color"				
			],
			"vertexShader": "vertex_mat18",
			"fragmentShader": "fragment_mat18"
		},
		"program_mat20": {
			"attributes": [
				"a_position",
				"a_normal",
				"a_color"				
			],
			"vertexShader": "vertex_mat20",
			"fragmentShader": "fragment_mat20"
		}
	},
	"techniques": {
		"technique_mat19": {
			"program": "program_mat19",
			"extras": {"gvrss" : "https://vr.google.com/shaders/w/gvrss/paper.json"},
			"parameters": {
				"position": {
					"type": 35665,
					"semantic": "POSITION"
				},
				"normal": {
					"type": 35665,
					"semantic": "NORMAL"
				},
				"color": {
					"type": 35666,
					"semantic": "COLOR"
				},
				"modelViewMatrix": {
					"type": 35676,
					"semantic": "MODELVIEW"
				},
				"projectionMatrix": {
					"type": 35676,
					"semantic": "PROJECTION"
				},
				"normalMatrix": {
					"type": 35675,
					"semantic": "MODELVIEWINVERSETRANSPOSE"
				},
				"color": {
					"type": 35666
				},
				"roughness": {
					"type": 5126
				},
				"metallic": {
					"type": 5126
				},
				"light0Pos": {
					"type": 35666
				},
				"light0Color": {
					"type": 35666
				},
				"light1Pos": {
					"type": 35666
				},
				"light1Color": {
					"type": 35666
				}				
			},
			"attributes": {
				"a_position": "position",
				"a_normal": "normal",
				"a_color": "color"				
			},
			"uniforms": {
				"u_modelViewMatrix": "modelViewMatrix",
				"u_projectionMatrix": "projectionMatrix",
				"u_normalMatrix": "normalMatrix",
				"u_color": "color",
				"u_roughness": "roughness",
				"u_metallic": "metallic",
				"u_light0Pos": "light0Pos",
				"u_light0Color": "light0Color",
				"u_light1Pos": "light1Pos",
				"u_light1Color": "light1Color"				
			},
			"states": {
				"enable": [
					2929,
					2884
				],
				"functions": {
					"cullFace": [1029]
				}
			}
		},
		"technique_mat18": {
			"program": "program_mat18",
			"extras": {"gvrss" : "https://vr.google.com/shaders/w/gvrss/paper.json"},
			"parameters": {
				"position": {
					"type": 35665,
					"semantic": "POSITION"
				},
				"normal": {
					"type": 35665,
					"semantic": "NORMAL"
				},
				"color": {
					"type": 35666,
					"semantic": "COLOR"
				},
				"modelViewMatrix": {
					"type": 35676,
					"semantic": "MODELVIEW"
				},
				"projectionMatrix": {
					"type": 35676,
					"semantic": "PROJECTION"
				},
				"normalMatrix": {
					"type": 35675,
					"semantic": "MODELVIEWINVERSETRANSPOSE"
				},
				"color": {
					"type": 35666
				},
				"roughness": {
					"type": 5126
				},
				"metallic": {
					"type": 5126
				},
				"light0Pos": {
					"type": 35666
				},
				"light0Color": {
					"type": 35666
				},
				"light1Pos": {
					"type": 35666
				},
				"light1Color": {
					"type": 35666
				}				
			},
			"attributes": {
				"a_position": "position",
				"a_normal": "normal",
				"a_color": "color"				
			},
			"uniforms": {
				"u_modelViewMatrix": "modelViewMatrix",
				"u_projectionMatrix": "projectionMatrix",
				"u_normalMatrix": "normalMatrix",
				"u_color": "color",
				"u_roughness": "roughness",
				"u_metallic": "metallic",
				"u_light0Pos": "light0Pos",
				"u_light0Color": "light0Color",
				"u_light1Pos": "light1Pos",
				"u_light1Color": "light1Color"				
			},
			"states": {
				"enable": [
					2929,
					2884
				],
				"functions": {
					"cullFace": [1029]
				}
			}
		},
		"technique_mat20": {
			"program": "program_mat20",
			"extras": {"gvrss" : "https://vr.google.com/shaders/w/gvrss/paper.json"},
			"parameters": {
				"position": {
					"type": 35665,
					"semantic": "POSITION"
				},
				"normal": {
					"type": 35665,
					"semantic": "NORMAL"
				},
				"color": {
					"type": 35666,
					"semantic": "COLOR"
				},
				"modelViewMatrix": {
					"type": 35676,
					"semantic": "MODELVIEW"
				},
				"projectionMatrix": {
					"type": 35676,
					"semantic": "PROJECTION"
				},
				"normalMatrix": {
					"type": 35675,
					"semantic": "MODELVIEWINVERSETRANSPOSE"
				},
				"color": {
					"type": 35666
				},
				"roughness": {
					"type": 5126
				},
				"metallic": {
					"type": 5126
				},
				"light0Pos": {
					"type": 35666
				},
				"light0Color": {
					"type": 35666
				},
				"light1Pos": {
					"type": 35666
				},
				"light1Color": {
					"type": 35666
				}				
			},
			"attributes": {
				"a_position": "position",
				"a_normal": "normal",
				"a_color": "color"				
			},
			"uniforms": {
				"u_modelViewMatrix": "modelViewMatrix",
				"u_projectionMatrix": "projectionMatrix",
				"u_normalMatrix": "normalMatrix",
				"u_color": "color",
				"u_roughness": "roughness",
				"u_metallic": "metallic",
				"u_light0Pos": "light0Pos",
				"u_light0Color": "light0Color",
				"u_light1Pos": "light1Pos",
				"u_light1Color": "light1Color"				
			},
			"states": {
				"enable": [
					2929,
					2884
				],
				"functions": {
					"cullFace": [1029]
				}
			}
		}
	},
	"materials": {
		"material_mat19": {
			"technique": "technique_mat19",
			"values": {
				"color": [0.8666667, 0.6, 0.2666667, 1],
				"roughness": 0.72,
				"metallic": 0,
				"light0Pos": [-0.02, 4.11, -0.54, 0],
				"light0Color": [0.8, 0.8, 0.8, 0],
				"light1Pos": [0.02, -4.11, 0.54, 0],
				"light1Color": [0.64, 0.5647059, 0.5647059, 0]				
			},
			"name": "material_mat19"
		},
		"material_mat18": {
			"technique": "technique_mat18",
			"values": {
				"color": [1, 0.8, 0.5333334, 1],
				"roughness": 0.72,
				"metallic": 0,
				"light0Pos": [-0.02, 4.11, -0.54, 0],
				"light0Color": [0.8, 0.8, 0.8, 0],
				"light1Pos": [0.02, -4.11, 0.54, 0],
				"light1Color": [0.64, 0.5647059, 0.5647059, 0]				
			},
			"name": "material_mat18"
		},
		"material_mat20": {
			"technique": "technique_mat20",
			"values": {
				"color": [0.4745098, 0.3333333, 0.282353, 1],
				"roughness": 0.72,
				"metallic": 0,
				"light0Pos": [-0.02, 4.11, -0.54, 0],
				"light0Color": [0.8, 0.8, 0.8, 0],
				"light1Pos": [0.02, -4.11, 0.54, 0],
				"light1Color": [0.64, 0.5647059, 0.5647059, 0]				
			},
			"name": "material_mat20"
		}
	},
	"nodes": {
		"node_MeshObject-825563584-PolyPaper19": {
			"name": "node_MeshObject-825563584-PolyPaper19",
			"meshes": [
				"mesh_m0-PolyPaper19_-1233036"
			],
			"matrix": [1, 0, 0, 0, 0, 1, 0, 0, 0, 0, 1, 0, 0, 0, 0, 1]
		},
		"node_MeshObject-1282176576-PolyPaper18": {
			"name": "node_MeshObject-1282176576-PolyPaper18",
			"meshes": [
				"mesh_m1-PolyPaper18_-1229702"
			],
			"matrix": [1, 0, 0, 0, 0, 1, 0, 0, 0, 0, 1, 0, 0, 0, 0, 1]
		},
		"node_MeshObject1575959872-PolyPaper18": {
			"name": "node_MeshObject1575959872-PolyPaper18",
			"meshes": [
				"mesh_m2-PolyPaper18_-1222490"
			],
			"matrix": [1, 0, 0, 0, 0, 1, 0, 0, 0, 0, 1, 0, 0, 0, 0, 1]
		},
		"node_MeshObject105840576-PolyPaper20": {
			"name": "node_MeshObject105840576-PolyPaper20",
			"meshes": [
				"mesh_m3-PolyPaper20_-1221148"
			],
			"matrix": [1, 0, 0, 0, 0, 1, 0, 0, 0, 0, 1, 0, 0, 0, 0, 1]
		},
		"node_MeshObject-480597888-PolyPaper20": {
			"name": "node_MeshObject-480597888-PolyPaper20",
			"meshes": [
				"mesh_m4-PolyPaper20_-1233016"
			],
			"matrix": [1, 0, 0, 0, 0, 1, 0, 0, 0, 0, 1, 0, 0, 0, 0, 1]
		},
		"node_MeshObject19799680-PolyPaper20": {
			"name": "node_MeshObject19799680-PolyPaper20",
			"meshes": [
				"mesh_m5-PolyPaper20_-1232708"
			],
			"matrix": [1, 0, 0, 0, 0, 1, 0, 0, 0, 0, 1, 0, 0, 0, 0, 1]
		},
		"node_MeshObject2009395200-PolyPaper19": {
			"name": "node_MeshObject2009395200-PolyPaper19",
			"meshes": [
				"mesh_m6-PolyPaper19_-1231844"
			],
			"matrix": [1, 0, 0, 0, 0, 1, 0, 0, 0, 0, 1, 0, 0, 0, 0, 1]
		}
	},
	"scene": "defaultScene",
	"scenes": {
		"defaultScene": {
			"nodes": [
				"node_MeshObject-825563584-PolyPaper19",
				"node_MeshObject-1282176576-PolyPaper18",
				"node_MeshObject1575959872-PolyPaper18",
				"node_MeshObject105840576-PolyPaper20",
				"node_MeshObject-480597888-PolyPaper20",
				"node_MeshObject19799680-PolyPaper20",
				"node_MeshObject2009395200-PolyPaper19"
			],
			"extras": {

			}
		}
	}
}